<?xml version="1.0"?>
<svg xmlns="http://www.w3.org/2000/svg" height="512px" viewBox="0 0 512 512" width="512px" class=""><g><g id="Solid"><path d="m149.622 256.936-37.371-37.371-80.251 87.547v36.888a8.009 8.009 0 0 0 8 8h43.809z" data-original="#000000" class="active-path" data-old_color="#000000" fill="#CC0000"/><path d="m122.99 184h-11.783a56.032 56.032 0 0 1 5.753 6.639z" data-original="#000000" class="active-path" data-old_color="#000000" fill="#CC0000"/><path d="m156.479 170.606a7.946 7.946 0 0 1 -1.078 1.5l-30.49 33.572c.566 1.636 1.061 3.3 1.472 4.987 3.955 3.926 9.2 9.189 15.65 15.7 6.608 6.672 13.228 13.394 17.781 18.024l16.746-18.177a8 8 0 0 1 6.885-2.517 35.995 35.995 0 1 0 -26.966-53.095z" data-original="#000000" class="active-path" data-old_color="#000000" fill="#CC0000"/><path d="m158.158 70.529a24.876 24.876 0 0 1 17.714-7.339h.128a24.885 24.885 0 0 1 17.771 7.521l1.7 1.735 4.781-18.453a8 8 0 0 1 7.748-5.993h40a8 8 0 0 0 0-16h-72a32.036 32.036 0 0 0 -32 32v52.975l12.776-12.507a25.207 25.207 0 0 1 1.382-33.939z" data-original="#000000" class="active-path" data-old_color="#000000" fill="#CC0000"/><path d="m56 400h16v24h-16z" data-original="#000000" class="active-path" data-old_color="#000000" fill="#CC0000"/><path d="m142.957 162.015a51.981 51.981 0 0 1 91.291 2.258 15.983 15.983 0 0 0 5.752-12.273v-24a8 8 0 0 1 8-8h20.9l-14.04-42.131a55.052 55.052 0 0 0 -6.915-13.869h-33.754l-6.78 26.164a8 8 0 0 1 -13.459 3.592l-11.606-11.847a9.057 9.057 0 0 0 -12.874-.067 9.108 9.108 0 0 0 -.132 12.677l4.432 4.62a8 8 0 0 1 -.176 11.255l-31.939 31.263-26.344 26.343h22.208zm85.043-74.015a12 12 0 1 1 -12 12 12.013 12.013 0 0 1 12-12z" data-original="#000000" class="active-path" data-old_color="#000000" fill="#CC0000"/><path d="m79 184.609a41.056 41.056 0 0 0 -7.689-.6c-21.675.363-39.311 18.657-39.311 40.781v58.643l73.917-80.633a39.9 39.9 0 0 0 -26.917-18.191z" data-original="#000000" class="active-path" data-old_color="#000000" fill="#CC0000"/><path d="m240 188a52.059 52.059 0 0 1 -52 52q-1.15 0-2.331-.056l-19.41 21.069-71.682 103.541a8 8 0 0 1 -6.577 3.446h-32v16h120.84l6.222-56h-23.062v-16h29.727a89.992 89.992 0 0 0 40.954-63.313l1.4-9.816a8 8 0 0 1 7.919-6.871h128v-48h-128.169c.101 1.322.169 2.653.169 4z" data-original="#000000" class="active-path" data-old_color="#000000" fill="#CC0000"/><path d="m447.281 184.157a8.02 8.02 0 0 1 -1.014-.157h-62.267v48h20.812a8 8 0 0 1 7.124 4.358 36 36 0 1 0 35.345-52.2z" data-original="#000000" class="active-path" data-old_color="#000000" fill="#CC0000"/><path d="m152 400h24v24h-24z" data-original="#000000" class="active-path" data-old_color="#000000" fill="#CC0000"/><path d="m56 440v40h139.867l-17.142-40z" data-original="#000000" class="active-path" data-old_color="#000000" fill="#CC0000"/><path d="m120 400h16v24h-16z" data-original="#000000" class="active-path" data-old_color="#000000" fill="#CC0000"/><path d="m88 400h16v24h-16z" data-original="#000000" class="active-path" data-old_color="#000000" fill="#CC0000"/></g></g> </svg>
