<?xml version="1.0"?>
<svg xmlns="http://www.w3.org/2000/svg" height="512px" viewBox="0 0 58 56" width="512px" class=""><g><g id="Page-1" fill="none" fill-rule="evenodd"><g id="020---Bandaged-Hand" fill-rule="nonzero"><path id="Shape" d="m56.83 19.82-.13-.13c-1.5642825-1.5597839-4.0957175-1.5597839-5.66 0l2.17-2.17c1.5575332-1.5613099 1.5575332-4.0886901 0-5.65l-.13-.13c-1.5642825-1.5597839-4.0957175-1.5597839-5.66 0l-.07.06c1.558881-1.6050682 1.5390928-4.16473952-.0444172-5.74551463s-4.1432117-1.59613861-5.7455828-.03448537l-1.45 1.44c1.1679903-1.16965855 1.5171063-2.92738112.8847691-4.45461785-.6323373-1.52723673-2.1218022-2.52371305-3.7747691-2.52538215-1.0868895.00291977-2.1288384.43407106-2.9 1.2l-2.69 2.69-1.65 1.65h-11.28c-1.8797415-.00543552-3.5195504 1.27501982-3.97 3.1l-1.97 7.12-3.07 11.08-.27.99c-.2853635 1.0239608-.82948586 1.957234-1.58 2.71l-1.75 1.75-5.79 5.78c-.40002296.4005652-.40002296 1.0494348 0 1.45l15.2 15.18c.4005652.400023 1.0494348.400023 1.45 0l6.54-6.53.18-.18c.8155071-.8105615 1.8403498-1.3783798 2.96-1.64l3.69-.85c.49-.11 1.07-.25 1.71-.41 2.73-.71 6.43-1.88 7.97-3.42l2.08-2.05 6.66-6.54 1.98-1.98 6.11-6.1c1.5597839-1.5642825 1.5597839-4.0957175 0-5.66z" fill="#fdd7ad" data-original="#FDD7AD" class=""/><path id="Shape" d="m32.03 45.57c-.64.16-1.22.3-1.71.41l-3.69.85c-1.1196502.2616202-2.1444929.8294385-2.96 1.64l-.18.18-17.4-15.88 1.75-1.75c.75051414-.752766 1.2946365-1.6860392 1.58-2.71l.27-.99 18.51 9.17.01.01.01.01z" fill="#285680" data-original="#285680" class="active-path" style="fill:#CC0000" data-old_color="#285680"/><path id="Shape" d="m28.2 36.49-18.51-9.17 3.07-11.08 8.02 2.63.24.55v.01z" fill="#3b97d3" data-original="#3B97D3" class="" style="fill:#CC0000" data-old_color="#3b97d3"/><path id="Shape" d="m42.08 40.1-2.08 2.05c-1.54 1.54-5.24 2.71-7.97 3.42l-3.81-9.06-.01-.01-.01-.01-7.18-17.06v-.01l-.24-.55v-.01l.28-1.1c.3476278-1.4082538.9181609-2.7518761 1.69-3.98.5630145-.9145737 1.2308676-1.7602972 1.99-2.52l1.13-1.13 7.59 14.03h.01z" fill="#84b5cb" data-original="#84B5CB" class="" style="fill:#C58484" data-old_color="#84b5cb"/><path id="Shape" d="m50.72 31.58-1.98 1.98-6.66 6.54-8.61-15.94h-.01l-7.59-14.03.83-.83 3.28-3.28 1.65-1.65z" fill="#3b97d3" data-original="#3B97D3" class="" style="fill:#CC0000" data-old_color="#3b97d3"/></g></g></g> </svg>
