<?xml version="1.0"?>
<svg xmlns="http://www.w3.org/2000/svg" xmlns:xlink="http://www.w3.org/1999/xlink" version="1.1" id="Capa_1" x="0px" y="0px" viewBox="0 0 512 512" style="enable-background:new 0 0 512 512;" xml:space="preserve" width="512px" height="512px" class="hovered-paths"><g><path style="fill:#FFC89D;" d="M94.677,247.514l-6.414,98.665l-15.025,4.084l-28.688,7.811c-4.559,1.241-9.229-1.585-10.245-6.199  L0.195,196.882c-0.971-4.41,1.777-8.782,6.171-9.821l23.911-5.654l19.005-4.489L94.677,247.514z" data-original="#FFC89D" class=""/><path style="fill:#F79F7C;" d="M94.677,247.514l-6.414,98.665l-19.371,5.267c0.314-3.258,0.121-8.578-0.115-13.067  C65.57,277.988,41.793,216.408,31.72,192.725c-1.537-3.612-2.706-6.472-4.449-10.607l22.011-5.2L94.677,247.514z" data-original="#F79F7C" class=""/><path style="fill:#000000" d="M363.735,443.202h-43.339c-3.744,0-6.97-2.66-7.659-6.338c-0.34-1.849-0.792-4.008-1.377-6.357  c-3.311-13.252-10.988-32.624-27.946-36.567c-24.117-5.574-113.369,24.909-168.28-43.744c-4.923-6.149-9.573-13.11-13.874-20.957  l13.619-4.603l27.163-9.186c0,0,5.15,8.951,17.581,18.043c15.704,11.507,43.027,23.24,86.291,17.477  c27.503-3.678,50.327,1.047,68.323,10.724c27.493,14.798,43.735,41.188,48.224,66.956  C363.32,433.544,363.735,438.43,363.735,443.202z" data-original="#D9EEF7" class="active-path" data-old_color="#D9EEF7"/><g>
	<path style="fill:#CC0000" d="M159.624,333.493l-44.489,16.704c-4.923-6.149-9.573-13.11-13.874-20.957l13.619-4.603l27.163-9.186   C142.043,315.45,147.193,324.401,159.624,333.493z" data-original="#A7BAC6" class="" data-old_color="#A7BAC6"/>
	<path style="fill:#CC0000" d="M362.458,428.647c-16.485,0.19-33.954,1.011-51.098,1.859c-3.311-13.246-10.99-32.628-27.945-36.562   c-26.275-6.082-129.906,30.67-182.15-64.705l13.616-4.602l4.692,5.784c23.731,29.226,56.214,42.833,102.223,42.833   c28.712,0,59.751-5.089,92.442-11.559C341.732,376.494,357.974,402.877,362.458,428.647z" data-original="#A7BAC6" class="" data-old_color="#A7BAC6"/>
</g><path style="fill:#000000" d="M510.369,405.23l-27.937,36.114c-2.962,3.82-8.677,4.084-11.903,0.49  c-43.197-48.196-190.011-11.799-276.707-24.268c-65.003-9.356-91.016-41.82-100.561-59.571c-3.81-7.083-4.999-11.818-4.999-11.818  l21.504-7.8c2.999,3.697,6.112,7.14,9.309,10.337c58.354,58.269,148.87,35.312,242.291,16.232  c79.839-16.298,131.082,16.392,147.663,29.399C512.397,396.987,512.982,401.844,510.369,405.23z" data-original="#D9EEF7" class="active-path" data-old_color="#D9EEF7"/><path style="fill:#CC0000" d="M119.077,348.716l-21.966,8.243c-1.254,0.472-2.547,0.821-3.848,1.038  c-3.81-7.083-4.999-11.818-4.999-11.818l21.504-7.8C112.767,342.076,115.88,345.518,119.077,348.716z" data-original="#A7BAC6" class="" data-old_color="#A7BAC6"/><path style="fill:#FFC89D;" d="M434.916,81.475l-0.01,39.349c0,2.976-0.951,5.797-2.614,8.101c-0.682,0.94-1.488,1.798-2.397,2.552  l0.021,0.331l0.062,0.909l1.157,15.51l0.537,7.274c0.289,3.906-1.095,7.688-3.689,10.467l0.052,0.486l0.124,1.085l2.594,14.704  l0.889,5.012c1.075,6.066-1.974,12.1-7.492,14.828l-0.424,0.992l4.567,14.156l1.354,4.206c2.17,6.727-1.085,14.022-7.554,16.895  l-61.069,27.176c-4.123,1.839-8.236,1.529-11.635-0.145c-0.269-0.124-0.527-0.269-0.785-0.413  c-3.586,2.718-7.316,5.084-11.118,7.161c-1.199,0.651-2.408,1.271-3.627,1.87c-3.152,1.54-6.355,2.893-9.558,4.071  c-34.027,12.482-69.263,5.528-69.263,5.528L92.466,344.598c-2.604,0.971-5.291,0.465-7.306-1.013c-1.808-1.312-3.059-3.4-3.193-5.9  C78.61,274.58,53.521,210.226,43.87,187.555c-1.901-4.464,0.692-9.548,5.415-10.633l1.984-0.455l172.222-39.865  c0,0,0.155-0.248,0.465-0.713c2.356-3.648,13.619-20.646,27.951-36.083c3.017-3.234,6.169-6.407,9.403-9.372  c6.861-6.272,14.094-11.614,21.173-14.683c4.877-2.129,9.692-3.172,14.27-2.718c3.059,0.31,6.251,0.961,9.527,1.87  c3.317,0.93,6.717,2.118,10.126,3.493c0.145,0.041,0.372,0.103,0.517,0.145c0.072,0.01,0.145,0.01,0.217,0.021  c2.18,0.186,8.391-0.227,16.884-1.023c1.364-0.124,66.69-7.481,85.331-9.806C427.621,66.699,434.916,73.147,434.916,81.475z" data-original="#FFC89D" class=""/><g>
	<path style="fill:#F79F7C;" d="M348.608,264.949c-3.257,2.463-6.623,4.647-10.061,6.569c-0.632-0.577-1.245-1.191-1.832-1.841   c-7.399-8.175-8.653-19.616-3.203-29.154c2.003-3.51,5.757-5.694,9.799-5.694c1.949,0,3.88,0.514,5.585,1.489   c0.532,0.307,1.038,0.65,1.498,1.029c-2.427,2.581-5.991,6.84-7.092,8.762C339.115,253.436,342.481,261.448,348.608,264.949z" data-original="#F79F7C" class=""/>
	<path style="fill:#F79F7C;" d="M337.487,272.111c-4.32,2.348-8.743,4.31-13.185,5.942c-34.03,12.478-69.266,5.527-69.266,5.527   L92.47,344.594c-4.942,1.849-10.224-1.641-10.507-6.913c-3.348-63.098-28.446-127.46-38.095-150.124   c-1.896-4.461,0.689-9.545,5.414-10.639l174.213-40.311c0,0,12.252-19.401,28.408-36.802c3.018-3.235,6.168-6.404,9.403-9.366   c21.212,17.59,54.647,54.025,53.657,108.304C321.971,208.457,336.657,233.309,337.487,272.111z" data-original="#F79F7C" class=""/>
</g><path style="fill:#000000" d="M324.3,278.052c-22.01,8.07-44.515,8.018-57.679,6.975c-7.192-0.579-11.583-1.447-11.583-1.447  l-6.035,2.263l-10.013,3.761l-16.078,6.035l-44.35,16.647l-21.255,7.977L95.38,343.502L82.319,348.4  c-0.062-5.301-0.3-10.622-0.682-15.954c-5.487-76.641-41.518-153.405-41.518-153.405l44.732-10.354l16.244-3.761l8.525-1.974  l18.341-4.247l36.672-8.484l18.331-4.237l34.471-7.977l6.055-1.405c0,0,2.687-4.237,7.192-10.54  c5.125-7.171,12.617-16.998,21.224-26.256c18.6,15.169,52.709,50.436,49.682,103.259C301.588,203.065,325.116,228.774,324.3,278.052  z" data-original="#D9EEF7" class="active-path" data-old_color="#D9EEF7"/><g>
	<path style="fill:#F79F7C;" d="M384.821,206.02c-5.9,5.001-14.187,6.603-23.322,4.526c-0.062-0.021-0.134-0.031-0.196-0.052   c-9.847-2.521-17.494-6.179-23.394-11.18c-1.777-1.498-3.462-3.183-4.991-5.012c-4.257-5.105-7.316-11.201-9.651-19.199   c-1.013-3.42-1.901-7.275-2.728-11.759c-0.031-0.134-0.072-0.362-0.103-0.589l-0.072-0.362l-2.232-10.953   c-0.858-4.195,1.85-8.287,6.045-9.145c4.195-0.847,8.287,1.85,9.145,6.045l2.449,12.11c0.744,4.04,1.509,7.378,2.366,10.292   c1.726,5.9,3.844,10.219,6.675,13.619c0.961,1.147,1.984,2.17,3.11,3.121c4.061,3.441,9.662,6.045,17.122,7.967   c3.007,0.672,7.109,0.992,9.754-1.25c1.87-1.591,2.852-4.433,2.501-7.244l-10.447-68.694c-4.578-3.617-44.081-37.313-50.446-39.865   c0.236,0.099,0.481,0.154,0.734,0.165c2.18,0.186,8.391-0.227,16.884-1.023c6.985,4.66,20.79,13.857,22.867,15.262   c11.718,7.946,21.679,14.983,22.227,15.438c1.509,1.261,2.48,3.038,2.728,4.991l7.367,44.164l2.005,15.985l1.457,11.656   C393.677,193.032,390.659,201.071,384.821,206.02z" data-original="#F79F7C" class=""/>
	<path style="fill:#F79F7C;" d="M330.479,185.364c-5.229,8.762-13.474,16.626-24.572,23.456c-2.738,1.684-5.652,3.307-8.732,4.867   c-10.757,5.425-23.735,10.085-38.604,13.857c-0.63,0.155-1.271,0.238-1.901,0.238c-3.462,0-6.624-2.335-7.512-5.849   c-1.054-4.144,1.457-8.36,5.611-9.414c13.764-3.493,25.678-7.76,35.422-12.668c4.226-2.139,8.08-4.423,11.521-6.83   c6.923-4.815,12.172-10.095,15.469-15.613c4.299-7.202,4.898-12.296,4.877-12.513l14.332-2.046   C336.545,163.892,337.651,173.378,330.479,185.364z" data-original="#F79F7C" class=""/>
	<path style="fill:#F79F7C;" d="M429.977,132.717l1.157,15.51l-37.974,16.13l-3.069,1.302c-0.992,0.424-2.015,0.62-3.028,0.62   c-3.017,0-5.88-1.767-7.14-4.722c-1.674-3.937,0.165-8.494,4.102-10.157l7.13-3.028l37.85-16.078c0.32-0.134,0.63-0.3,0.909-0.486   L429.977,132.717z" data-original="#F79F7C" class=""/>
	<path style="fill:#F79F7C;" d="M428.158,167.54l2.594,14.704l-44.691,23.239c-1.147,0.599-2.366,0.878-3.575,0.878   c-2.8,0-5.497-1.519-6.882-4.175c-1.974-3.803-0.496-8.483,3.307-10.457c0,0,48.198-24.964,49.105-25.452L428.158,167.54z" data-original="#F79F7C" class=""/>
	<path style="fill:#F79F7C;" d="M423.725,203.075l4.567,14.156c-0.672,0.434-1.374,0.837-2.108,1.199l-61.585,30.369   c-3.327,1.643-6.923,2.459-10.509,2.459c-4.195,0-8.38-1.126-12.131-3.348c-5.022-2.986-8.721-7.688-10.426-13.247   c-3.131-10.137-2.542-19.519,1.715-27.124c2.201-3.958,5.404-7.43,9.496-10.333c0.062-0.041,0.124-0.093,0.196-0.134l1.126-0.744   c3.565-2.366,8.37-1.395,10.736,2.17s1.395,8.38-2.17,10.746l-1.023,0.672c-2.149,1.54-3.772,3.286-4.826,5.177   c-2.17,3.885-2.315,8.928-0.444,15.004c0.744,2.418,2.335,3.772,3.544,4.495c2.408,1.426,5.342,1.54,7.853,0.3l66.411-32.808   L423.725,203.075z" data-original="#F79F7C" class=""/>
	<path style="fill:#F79F7C;" d="M374.657,118.598c-3.108,0-6.039-1.881-7.229-4.953c-1.545-3.991,0.437-8.48,4.429-10.026   l17.825-6.902c3.991-1.543,8.479,0.437,10.025,4.428c1.545,3.991-0.437,8.48-4.429,10.026l-17.825,6.902   C376.534,118.429,375.588,118.598,374.657,118.598z" data-original="#F79F7C" class=""/>
</g><g>
	<path style="fill:#CC0000" d="M266.621,285.027c-7.192-0.579-11.583-1.447-11.583-1.447l-6.035,2.263   c8.701-68.591-21.276-129.402-31.568-147.836l6.055-1.405c0,0,2.687-4.237,7.192-10.54   C239.713,141.242,275.435,207.147,266.621,285.027z" data-original="#A7BAC6" class="" data-old_color="#A7BAC6"/>
	<path style="fill:#CC0000" d="M222.912,295.639c-0.083-39.844-10.953-72.373-23.229-96.408   c0.145,29.263-3.296,73.437-21.121,113.055l-21.255,7.977c0.062-1.157,0.372-2.325,0.971-3.42   c5.074-9.31,9.155-19.096,12.431-29.036c-0.041-0.155-0.103-0.3-0.145-0.455c-19.344-87.656-58.971-122.23-59.364-122.571   c-0.641-0.537-1.168-1.157-1.581-1.829l18.341-4.247c11.067,12.028,34.358,42.087,50.88,96.408   c7.037-39.844,4.113-75.742,3.214-84.546c-9.217-12.575-16.388-19.282-16.595-19.457c-0.3-0.279-0.579-0.579-0.827-0.889   l18.331-4.237c3.555,3.927,8.256,9.548,13.433,16.75c0,0.01,0.01,0.01,0.01,0.01c3.679,5.125,7.605,11.067,11.532,17.794   c13.609,23.301,29.708,60.79,31.051,109.066L222.912,295.639z" data-original="#A7BAC6" class="" data-old_color="#A7BAC6"/>
	<path style="fill:#CC0000" d="M95.38,343.502L82.319,348.4c-0.062-5.301-0.3-10.622-0.682-15.954   c24.241-70.802,8.432-143.703,3.214-163.759l16.244-3.761C107.181,187.999,123.993,266.562,95.38,343.502z" data-original="#A7BAC6" class="" data-old_color="#A7BAC6"/>
	<path style="fill:#CC0000" d="M305.907,208.821c-2.738,1.684-5.652,3.307-8.732,4.867c-10.757,5.425-23.735,10.085-38.604,13.857   c-0.63,0.155-1.271,0.238-1.901,0.238c-3.462,0-6.624-2.335-7.512-5.849c-1.054-4.144,1.457-8.36,5.611-9.414   c13.764-3.493,25.678-7.76,35.422-12.668c4.226-2.139,8.08-4.423,11.521-6.83c0.114,3.276,0.072,6.624-0.124,10.044   C301.588,203.065,303.355,204.997,305.907,208.821z" data-original="#A7BAC6" class="" data-old_color="#A7BAC6"/>
</g></g> </svg>
